<svg width="896" height="392" viewBox="0 0 896 392" fill="none" xmlns="http://www.w3.org/2000/svg">
<path d="M432.951 30.8756V61.3451H392.464H351.977V124.782V188.218H318.896H285.815V124.782V61.3451H242.424C213.982 61.3451 198.819 61.6968 198.41 62.3641C198.067 62.9255 202.321 68.2073 207.861 74.1024C231.847 99.6248 236.777 109.32 236.678 130.776C236.553 157.994 219.972 179.958 194.478 186.677C189.402 188.014 176.162 188.218 94.5295 188.218H0.432055V155.251V122.284H74.4125C115.102 122.284 149.096 122.011 149.955 121.678C150.814 121.344 151.517 120.651 151.517 120.136C151.517 119.622 145.924 113.039 139.088 105.508C128.579 93.9305 125.999 90.425 122.395 82.8236C117.157 71.7727 115.59 65.2063 115.717 54.8516C116.018 30.6039 133.092 9.73774 158.695 2.32915C164.456 0.661817 173.389 0.543935 298.9 0.477001L432.951 0.406074V30.8756Z" fill="#E50911"/>
<path fill-rule="evenodd" clip-rule="evenodd" d="M566.29 2.65383C567.903 6.3781 622.548 185.246 622.548 186.803C622.548 188.036 617.685 188.206 588.912 187.981L555.277 187.719L551.087 174.732L546.897 161.745L515.2 161.481L483.504 161.218L479.893 172.969C477.907 179.433 476.056 185.508 475.781 186.47C475.316 188.092 472.785 188.218 440.717 188.218C408.27 188.218 406.186 188.111 406.656 186.47C409.758 175.625 460.878 4.79369 461.578 2.92855L462.526 0.406074H513.922H565.316L566.29 2.65383ZM500.862 109.047C500.622 108.361 503.77 96.8976 507.858 83.5729C511.947 70.2482 515.539 59.3511 515.842 59.3551C516.869 59.3691 530.935 107.267 530.358 108.788C529.884 110.036 527.337 110.296 515.542 110.296C505.038 110.296 501.184 109.968 500.862 109.047Z" fill="#E50911"/>
<path fill-rule="evenodd" clip-rule="evenodd" d="M784.002 3.62685C805.017 10.8676 820.026 25.7617 825.555 44.8616C827.695 52.2542 827.971 68.5839 826.086 76.3301C822.639 90.505 814.427 101.745 800.905 110.796C796.8 113.543 793.428 116.342 793.413 117.016C793.396 117.691 794.585 119.039 796.053 120.013C798.501 121.637 802.744 121.81 846.909 122.087L895.094 122.389V155.304V188.218H836.052C771.487 188.218 771.393 188.211 759.315 182.257C754.499 179.884 749.419 175.306 732.182 157.804C720.516 145.96 710.63 136.27 710.21 136.27C709.79 136.27 709.447 147.958 709.447 162.244V188.218H672.416H635.385V94.2802V0.342138L705.744 0.623855L776.102 0.905574L784.002 3.62685ZM709.657 66.4081C709.501 60.6758 709.599 55.3931 709.873 54.6698C710.613 52.7197 749.645 52.7867 754.28 54.7457C758.857 56.6808 760.796 59.8956 760.796 65.5479C760.796 69.3911 760.243 70.9305 757.915 73.5669L755.036 76.8296H732.488H709.94L709.657 66.4081Z" fill="#E50911"/>
<path fill-rule="evenodd" clip-rule="evenodd" d="M629.829 203.709C656.188 208.359 676.323 225.64 682.263 248.71C684.21 256.27 684.209 271.994 682.261 279.667C678.826 293.199 670.212 304.782 656.947 313.703C652.46 316.72 650.201 318.868 650.402 319.922C651.15 323.856 653.755 324.052 705.25 324.067C750.127 324.081 754.871 323.93 754.871 322.481C754.871 321.6 750.804 316.542 745.832 311.242C729.483 293.811 724.767 286.359 721.229 272.368C716.479 253.576 720.994 236.051 734.281 221.712C741.049 214.408 748.091 209.983 759.551 205.836L768.202 202.704L831.648 202.406L895.094 202.109V233.125V264.142H848.682C815.476 264.142 802.27 264.456 802.27 265.245C802.27 265.853 807.677 272.253 814.285 279.47C828.505 295 831.077 298.405 835.39 307.4C839.487 315.948 841.214 326.019 840.476 337.066C838.763 362.744 821.416 383.711 797.081 389.515C787.78 391.734 637.882 391.699 628.56 389.476C614.617 386.151 611.089 383.612 587.492 359.914L565.768 338.095L565.505 364.568L565.241 391.039L528.474 390.778L491.706 390.516L491.451 297.609C491.311 246.51 491.409 204.14 491.668 203.453C492.426 201.441 618.295 201.674 629.829 203.709ZM566.755 279.627L566.477 267.889L566.199 256.15H586.999C610.148 256.15 613.401 256.807 616.064 262.016C619.308 268.363 617.191 275.681 611.291 278.514C608.364 279.918 604.754 280.126 587.301 279.897L566.755 279.627Z" fill="#E50911"/>
<path fill-rule="evenodd" clip-rule="evenodd" d="M417.816 202.98C418.804 203.616 427.927 232.842 469.55 368.694C472.774 379.218 475.413 388.547 475.413 389.423C475.413 390.849 471.911 391.015 441.887 391.015H408.362L404.116 377.779L399.87 364.542L368.085 364.278L336.301 364.014L332.124 377.515L327.946 391.015H294.101C275.487 391.015 260.027 390.64 259.747 390.179C259.466 389.72 260.74 384.438 262.579 378.441C264.417 372.445 276.876 330.904 290.265 286.127C303.654 241.35 315.073 204.15 315.639 203.46C316.441 202.482 327.714 202.207 366.663 202.219C394.16 202.228 417.179 202.57 417.816 202.98ZM355.2 312.344C353.156 313.046 354.45 307.04 361.043 285.205C365.018 272.04 368.552 261.579 368.895 261.956C369.758 262.906 383.576 308.647 383.576 310.554C383.576 311.869 381.551 312.094 369.752 312.094C362.148 312.094 355.6 312.207 355.2 312.344Z" fill="#E50911"/>
<path d="M76.7183 206.95C77.4806 209.56 80.7354 220.794 83.9516 231.916C87.1679 243.036 90.0661 252.14 90.393 252.145C90.7188 252.15 93.308 243.726 96.1451 233.423C98.9831 223.121 102.073 211.994 103.012 208.698L104.719 202.704L142.977 202.442L181.233 202.18L182.555 205.439C183.282 207.231 186.889 218.476 190.57 230.426C194.252 242.376 197.525 252.152 197.843 252.15C198.162 252.148 201.26 242.371 204.728 230.422C208.196 218.474 211.618 207.236 212.331 205.451L213.628 202.204H248.352H283.077L282.658 204.952C282.427 206.462 269.824 248.944 254.649 299.355L227.06 391.011L195.412 391.013L163.765 391.015L153.58 356.8C147.979 337.981 143.046 321.934 142.618 321.139C142.094 320.164 141.172 321.948 139.783 326.634C138.65 330.45 133.788 346.385 128.976 362.044L120.228 390.516H88.731H57.2342L28.8973 298.108C13.3118 247.284 0.53179 204.915 0.496241 203.952C0.436004 202.317 2.84942 202.204 37.8825 202.204H75.3328L76.7183 206.95Z" fill="#E50911"/>
</svg>
